Coordinates
version=1
nRows=14
nColumns=33
inDegrees=yes

Units are S.I. units (second, meters, Newtons, ...)
Angles are in degrees.

endheader
time	ground_thorax_rot_x	ground_thorax_rot_y	ground_thorax_rot_z	ground_thorax_tx	ground_thorax_ty	ground_thorax_tz	clav_prot_r	clav_elev_r	scapula_abduction_r	scapula_elevation_r	scapula_upward_rot_r	scapula_winging_r	shoulder_elv_r	plane_of_elev_r	axial_rot_r	elbow_flexion_r	pro_sup_r	wrist_flex_r	wrist_dev_r	clav_prot_l	clav_elev_l	scapula_abduction_l	scapula_elevation_l	scapula_upward_rot_l	scapula_winging_l	shoulder_elv_l	plane_of_elev_l	axial_rot_l	elbow_flexion_l	pro_sup_l	wrist_flex_l	wrist_dev_l
      9.81000000	    -37.85086442	     -3.78152325	      5.08560239	     -4.62375527	    805.21725319	      1.33469708	     -6.21209783	    -45.00000000	     45.00000000	    -45.00000000	     26.48676326	  -2625.56657432	  -2101.35926058	     19.37755323	   -179.99999979	   1804.34135369	    -95.05795351	     14.70344997	     10.80467573	     15.74593934	     39.44525109	    -45.00000000	    -38.18425021	    -25.37649869	   1155.80896446	  -1540.67118347	    135.50844078	   -179.99999979	   1084.99004689	     18.03225013	     13.35150454	    -18.53150671
      9.82000000	    -37.82634681	     -3.79420105	      5.06375737	     -4.93079002	    805.09335875	      1.32265184	     -6.08093170	    -45.00000000	     45.00000000	    -45.00000000	     26.51776774	  -2625.70064243	  -2101.29054663	     19.45069215	   -179.99999979	   1804.25961482	    -94.06900286	     14.95524990	     10.71187271	     15.82359600	     39.57859535	    -45.00000000	    -38.02861383	    -25.14275658	   1155.95476198	  -1540.64950436	    135.56154613	   -179.99999979	   1084.87402936	     18.31814254	     12.89897583	    -18.54438343
      9.83000000	    -37.93396573	     -3.78852514	      4.92630645	     -5.52989713	    804.98576367	      1.30410134	     -6.24846748	    -45.00000000	     45.00000000	    -45.00000000	     26.61869950	  -2625.72404461	  -2101.28532721	     19.30052472	   -179.99999979	   1804.14113889	    -93.11826737	     14.73667515	     10.79003739	     15.70108357	     39.62040619	    -45.00000000	    -38.26363393	    -25.20037878	   1155.93130087	  -1540.64359149	    135.51483157	   -179.99999979	   1084.85662966	     18.73145822	     13.14430153	    -18.58179507
      9.84000000	    -37.86947076	     -3.88180255	      4.91545871	     -6.42956979	    804.87450666	      1.27809922	     -6.16066113	    -45.00000000	     45.00000000	    -45.00000000	     26.73714459	  -2625.81972727	  -2101.03417640	     19.50405744	   -179.99999979	   1804.27143601	    -92.36699161	     15.04730196	     10.72211529	     15.67643489	     39.24014068	    -45.00000000	    -38.05784144	    -24.85565699	   1156.37365161	  -1540.76447341	    135.52545293	   -179.99999979	   1084.61202721	     19.06046360	     12.59263966	    -18.59864120
      9.85000000	    -38.04116170	     -3.81500691	      4.80201157	     -7.60566082	    804.74764902	      1.24266300	     -6.26062562	    -45.00000000	     45.00000000	    -45.00000000	     26.87379140	  -2625.95373954	  -2100.96735025	     19.38671470	   -179.99999979	   1804.13236770	    -91.87566254	     14.76470316	     10.82288512	     15.56046364	     40.01154074	    -45.00000000	    -38.47343846	    -25.16658946	   1156.26433939	  -1540.55919930	    135.58565638	   -179.99999979	   1084.84559304	     19.43810103	     12.76654197	    -18.67846716
      9.86000000	    -38.09069805	     -3.88635260	      4.84418837	     -9.06319912	    804.59433798	      1.19276520	     -6.27565568	    -45.00000000	     45.00000000	    -45.00000000	     27.10252422	  -2626.31304527	  -2100.66313018	     19.51308964	   -179.99999979	   1804.29768462	    -91.58555963	     15.05202122	     10.71358654	     15.85557129	     39.66153918	    -45.00000000	    -38.52512351	    -25.05009417	   1156.57118808	  -1540.76742408	    135.51218533	   -179.99999979	   1084.60524802	     19.66438445	     12.12970333	    -18.67947451
      9.87000000	    -38.15616831	     -3.89816348	      4.80673180	    -10.79002175	    804.41109648	      1.12268588	     -6.21613038	    -45.00000000	     45.00000000	    -45.00000000	     26.84973310	  -2626.27746774	  -2100.51801198	     19.42583694	   -179.99999979	   1804.06259819	    -91.48498608	     14.83742075	     10.76382973	     15.66269114	     39.96656481	    -45.00000000	    -38.86862283	    -25.40591513	   1156.57140359	  -1540.72783068	    135.59279247	   -179.99999979	   1084.79970492	     19.99577166	     12.35723718	    -18.75545244
      9.88000000	    -38.30551397	     -3.90981261	      4.81659465	    -12.78716853	    804.19463902	      1.02614888	     -6.19959358	    -45.00000000	     45.00000000	    -45.00000000	     27.03462181	  -2626.63925785	  -2100.27269510	     19.45111541	   -179.99999979	   1804.16303815	    -91.54275675	     14.85886097	     10.69746432	     15.90655054	     40.10911548	    -45.00000000	    -39.18336985	    -25.69729958	   1156.68497115	  -1540.71231876	    135.56386426	   -179.99999979	   1084.76099261	     20.19723426	     11.98135549	    -18.78001671
      9.89000000	    -38.38220388	     -3.95906295	      4.81463809	    -15.05545660	    803.94521889	      0.89728875	     -6.18556220	    -45.00000000	     45.00000000	    -45.00000000	     26.93967858	  -2626.80561880	  -2100.03569115	     19.47754899	   -179.99999979	   1804.16112588	    -91.66963994	     14.86208998	     10.71428951	     15.94499112	     40.30716031	    -45.00000000	    -39.38442966	    -25.98746934	   1156.87917058	  -1540.68089953	    135.57023341	   -179.99999979	   1084.76447254	     20.36931797	     11.89990541	    -18.78064526
      9.90000000	    -38.60095319	     -3.82125525	      4.63791239	    -17.58300204	    803.66511014	      0.73263183	     -6.12079239	    -45.00000000	     45.00000000	    -45.00000000	     26.88520271	  -2626.89044651	  -2099.82878597	     19.35578017	   -179.99999979	   1804.11460310	    -91.83986808	     14.80127355	     10.64742226	     16.00929007	     40.58036955	    -45.00000000	    -39.78363065	    -26.01048117	   1156.86799135	  -1540.72749895	    135.78226214	   -179.99999979	   1084.84344311	     20.59781530	     11.83055034	    -18.84444496
      9.91000000	    -38.62636268	     -4.18179357	      5.05515466	    -20.37592879	    803.35506443	      0.52959338	     -5.88039171	    -45.00000000	     45.00000000	    -45.00000000	     26.33994346	  -2627.12163749	  -2099.43081521	     19.44111896	   -179.99999979	   1804.24325972	    -92.01324224	     14.81938925	     10.67505704	     16.35249316	     41.03565868	    -45.00000000	    -40.01009751	    -27.44450092	   1156.75905679	  -1540.30470336	    135.79293640	   -179.99893259	   1084.88495195	     20.86532658	     11.53618049	    -18.80257761
      9.92000000	    -38.76922223	     -4.39638140	      5.24881465	    -23.43285070	    803.01760300	      0.28800804	     -5.67358158	    -45.00000000	     45.00000000	    -45.00000000	     26.03463898	  -2627.49756636	  -2099.23839905	     19.49247300	   -179.99999979	   1804.28821659	    -92.05428030	     14.96910027	     10.64343293	     16.54768041	     41.16640540	    -45.00000000	    -40.30682042	    -28.16638312	   1157.07385285	  -1540.30204471	    135.70417971	   -179.99999979	   1084.89333023	     21.08599562	     11.28364968	    -18.75812625
      9.93000000	    -38.90187032	     -4.43950021	      5.29109408	    -26.75411137	    802.65348117	      0.00904702	     -5.55703697	    -45.00000000	     45.00000000	    -45.00000000	     25.86302218	  -2627.76776994	  -2098.94741168	     19.51827252	   -179.99999979	   1804.32551134	    -91.86361488	     15.01764893	     10.59217707	     16.64467145	     41.29703832	    -45.00000000	    -40.58067528	    -28.82599742	   1157.21047482	  -1540.15479949	    135.69436936	   -179.99999979	   1084.93736179	     21.32206308	     11.16084238	    -18.75191793
      9.94000000	    -38.99919701	     -4.56195047	      5.40240743	    -30.34069336	    802.26401471	     -0.30479945	     -5.43397428	    -45.00000000	     45.00000000	    -45.00000000	     25.60299731	  -2628.11030637	  -2098.69612620	     19.51716098	   -179.99999979	   1804.27798190	    -91.37136634	     15.11914399	     10.50848422	     16.84176807	     41.31602120	    -45.00000000	    -40.94252676	    -29.70686096	   1157.32167053	  -1540.16558055	    135.63450884	   -179.99999979	   1084.99807883	     21.55266786	     11.05383507	    -18.74576130
